<?xml version="1.0" encoding="iso-8859-1"?>
<!-- Generator: Adobe Illustrator 19.0.0, SVG Export Plug-In . SVG Version: 6.00 Build 0)  -->
<svg version="1.1" id="Layer_1" xmlns="http://www.w3.org/2000/svg" xmlns:xlink="http://www.w3.org/1999/xlink" x="0px" y="0px"
	 viewBox="0 0 50 50" style="enable-background:new 0 0 50 50;" xml:space="preserve">
<path id="XMLID_3_" style="fill:none;" d="M38.035,26.979l-8.987,8.789c-0.523,0.511-1.403,0.141-1.403-0.59V0.826
	C27.644,0.37,27.275,0,26.818,0h-4.567c-0.456,0-0.826,0.37-0.826,0.826v34.312c0,0.734-0.886,1.103-1.408,0.586l-8.642-8.576
	c-0.322-0.32-0.841-0.32-1.163,0l-3.721,3.69c-0.325,0.322-0.326,0.846-0.003,1.17l13.387,13.406l4.256,4.265
	c0.323,0.323,0.846,0.323,1.169,0l4.261-4.265L43,31.857c0.323-0.326,0.319-0.852-0.01-1.173l-3.801-3.706
	C38.868,26.665,38.356,26.665,38.035,26.979z"/>
</svg>
